<svg width="312.1902587890625px" height="112.39999999999999px" xmlns="http://www.w3.org/2000/svg" viewBox="93.90487060546874 18.800000000000004 312.1902587890625 112.39999999999999" style="background: rgba(0, 0, 0, 0);" preserveAspectRatio="xMidYMid"><defs><filter id="editing-vr"><feFlood flood-color="#f00" flood-opacity="0.7" result="c1"></feFlood><feFlood flood-color="#00f" flood-opacity="0.7" result="c3"></feFlood><feComposite operator="in" in="c1" in2="SourceAlpha" result="text-c1"></feComposite><feComposite operator="in" in="c3" in2="SourceAlpha" result="text-c3"></feComposite><feOffset in="text-c1" dx="5" dy="-1" result="text1"></feOffset><feOffset in="text-c3" dx="-5" dy="1" result="text3"></feOffset><feBlend in="SourceGraphic" in2="text1" mode="multiply" result="text4"></feBlend><feBlend in="text4" in2="text3" mode="multiply"></feBlend></filter></defs><g filter="url(#editing-vr)"><g transform="translate(151.12037658691406, 95.38500022888184)"><path d="M27.58-6.34L25.09 0L12.29 0L29.12-40L47.94-40L50.75 0L37.89 0L37.63-6.34L27.58-6.34ZM31.55-16.51L36.67-16.51L36.67-27.71L36.03-27.71L31.55-16.51ZM11.46-3.07L10.24-0.26L-16-3.07L11.46-3.07ZM14.08-9.28L12.86-6.46L-13.38-9.28L14.08-9.28ZM16.64-15.42L15.49-12.61L-10.75-15.42L16.64-15.42ZM19.26-21.57L18.05-18.75L-8.13-21.57L19.26-21.57ZM21.82-27.71L20.67-24.90L-5.50-27.71L21.82-27.71ZM27.01-40L25.86-37.25L-0.26-40L27.01-40ZM24.38-33.86L23.23-31.10L-2.88-33.86L24.38-33.86ZM-0.26-40L25.86-37.25L27.01-40L-0.26-40ZM89.28-9.66L89.28-9.66L81.34-9.66L79.68 0L67.52 0L74.56-40L93.76-40L93.76-40Q104.64-40 104.64-29.89L104.64-29.89L104.64-29.89Q104.64-25.09 103.30-21.22L103.30-21.22L103.30-21.22Q101.95-17.34 100.32-15.07L100.32-15.07L100.32-15.07Q98.69-12.80 95.84-11.23L95.84-11.23L95.84-11.23Q92.99-9.66 89.28-9.66ZM83.14-19.90L85.95-19.90L85.95-19.90Q88.13-19.90 89.25-20.38L89.25-20.38L89.25-20.38Q90.37-20.86 90.69-22.59L90.69-22.59L90.69-22.59Q91.52-27.33 91.52-27.78L91.52-27.78L91.52-27.78Q91.52-28.99 90.56-29.38L90.56-29.38L90.56-29.38Q89.60-29.76 87.68-29.76L87.68-29.76L84.86-29.76L83.14-19.90ZM66.11-3.07L65.60-0.19L38.46-3.07L66.11-3.07ZM68.29-15.42L67.78-12.54L40.64-15.42L68.29-15.42ZM70.40-27.71L69.89-24.83L42.82-27.71L70.40-27.71ZM71.49-33.86L70.98-30.98L43.90-33.86L71.49-33.86ZM67.20-9.28L66.69-6.40L39.55-9.28L67.20-9.28ZM72.58-40L72.06-37.12L44.99-40L72.58-40ZM69.31-21.57L68.80-18.69L41.73-21.57L69.31-21.57ZM138.50-9.66L138.50-9.66L130.56-9.66L128.90 0L116.74 0L123.78-40L142.98-40L142.98-40Q153.86-40 153.86-29.89L153.86-29.89L153.86-29.89Q153.86-25.09 152.51-21.22L152.51-21.22L152.51-21.22Q151.17-17.34 149.54-15.07L149.54-15.07L149.54-15.07Q147.90-12.80 145.06-11.23L145.06-11.23L145.06-11.23Q142.21-9.66 138.50-9.66ZM132.35-19.90L135.17-19.90L135.17-19.90Q137.34-19.90 138.46-20.38L138.46-20.38L138.46-20.38Q139.58-20.86 139.90-22.59L139.90-22.59L139.90-22.59Q140.74-27.33 140.74-27.78L140.74-27.78L140.74-27.78Q140.74-28.99 139.78-29.38L139.78-29.38L139.78-29.38Q138.82-29.76 136.90-29.76L136.90-29.76L134.08-29.76L132.35-19.90ZM115.33-3.07L114.82-0.19L87.68-3.07L115.33-3.07ZM117.50-15.42L116.99-12.54L89.86-15.42L117.50-15.42ZM119.62-27.71L119.10-24.83L92.03-27.71L119.62-27.71ZM120.70-33.86L120.19-30.98L93.12-33.86L120.70-33.86ZM116.42-9.28L115.90-6.40L88.77-9.28L116.42-9.28ZM121.79-40L121.28-37.12L94.21-40L121.79-40ZM118.53-21.57L118.02-18.69L90.94-21.57L118.53-21.57ZM164.42-0.19L137.66-3.07L165.31-3.07L164.42-0.19ZM142.59-27.71L170.18-27.71L170.18-27.71Q169.79-26.69 169.34-24.83L169.34-24.83L142.59-27.71ZM168.58-19.20L168.58-19.20L168.58-18.69L141.44-21.57L168.70-21.57L168.70-21.57Q168.58-20.03 168.58-19.20ZM167.36-9.28L166.46-6.46L139.78-9.28L167.36-9.28ZM147.01-33.86L174.59-33.86L174.59-33.86Q172.86-32.58 171.97-31.17L171.97-31.17L147.01-33.86ZM143.94-15.42L169.15-15.42L169.15-15.42Q169.73-13.76 171.01-12.54L171.01-12.54L143.94-15.42ZM197.76-33.15L194.69-23.81L194.69-23.81Q190.34-24.83 187.26-24.83L187.26-24.83L187.26-24.83Q184.19-24.83 182.72-24.64L182.72-24.64L182.40-22.78L185.60-22.40L185.60-22.40Q195.90-21.06 195.90-13.89L195.90-13.89L195.90-13.89Q195.90-13.06 195.52-10.78L195.52-10.78L195.52-10.78Q195.14-8.51 194.24-6.40L194.24-6.40L194.24-6.40Q193.34-4.29 191.97-2.98L191.97-2.98L191.97-2.98Q190.59-1.66 189.28-0.86L189.28-0.86L189.28-0.86Q187.97-0.06 185.92 0.26L185.92 0.26L185.92 0.26Q182.72 0.77 177.38 0.77L177.38 0.77L177.38 0.77Q172.03 0.77 166.59-0.70L166.59-0.70L169.73-10.18L169.73-10.18Q174.72-8.77 178.46-8.77L178.46-8.77L178.46-8.77Q182.21-8.77 183.74-8.96L183.74-8.96L184.06-11.01L180.03-11.46L180.03-11.46Q174.85-12.03 172.67-13.89L172.67-13.89L172.67-13.89Q170.50-15.74 170.50-19.20L170.50-19.20L170.50-19.20Q170.50-20.48 170.82-22.40L170.82-22.40L170.82-22.40Q172.10-29.25 175.42-31.87L175.42-31.87L175.42-31.87Q178.75-34.50 185.57-34.50L185.57-34.50L185.57-34.50Q192.38-34.50 197.76-33.15L197.76-33.15Z" fill="#444"></path></g></g><style>text {
  font-size: 64px;
  font-family: Arial Black;
  dominant-baseline: central;
  text-anchor: middle;
}</style></svg>