<svg width="540.4850219726562px" height="184.4px" xmlns="http://www.w3.org/2000/svg" viewBox="-20.242510986328114 -17.200000000000003 540.4850219726562 184.4" style="background: rgba(0, 0, 0, 0);" preserveAspectRatio="xMidYMid"><defs><filter id="editing-vr"><feFlood flood-color="#f00" flood-opacity="0.7" result="c1"></feFlood><feFlood flood-color="#00f" flood-opacity="0.7" result="c3"></feFlood><feComposite operator="in" in="c1" in2="SourceAlpha" result="text-c1"></feComposite><feComposite operator="in" in="c3" in2="SourceAlpha" result="text-c3"></feComposite><feOffset in="text-c1" dx="5" dy="1" result="text1"></feOffset><feOffset in="text-c3" dx="-5" dy="-1" result="text3"></feOffset><feBlend in="SourceGraphic" in2="text1" mode="multiply" result="text4"></feBlend><feBlend in="text4" in2="text3" mode="multiply"></feBlend></filter></defs><g filter="url(#editing-vr)"><g transform="translate(73.86997985839844, 111.31000232696533)"><path d="M49.13-11.29L44.69 0L21.89 0L51.87-71.25L85.39-71.25L90.40 0L67.49 0L67.03-11.29L49.13-11.29ZM56.20-29.41L65.32-29.41L65.32-49.36L64.18-49.36L56.20-29.41ZM20.41-5.47L18.24-0.46L-28.50-5.47L20.41-5.47ZM25.08-16.53L22.91-11.51L-23.83-16.53L25.08-16.53ZM29.64-27.47L27.59-22.46L-19.15-27.47L29.64-27.47ZM34.31-38.42L32.15-33.40L-14.48-38.42L34.31-38.42ZM38.87-49.36L36.82-44.35L-9.80-49.36L38.87-49.36ZM48.11-71.25L46.06-66.35L-0.46-71.25L48.11-71.25ZM43.43-60.31L41.38-55.40L-5.13-60.31L43.43-60.31ZM-0.46-71.25L46.06-66.35L48.11-71.25L-0.46-71.25ZM159.03-17.21L159.03-17.21L144.89-17.21L141.93 0L120.27 0L132.81-71.25L167.01-71.25L167.01-71.25Q186.39-71.25 186.39-53.24L186.39-53.24L186.39-53.24Q186.39-44.69 184.00-37.79L184.00-37.79L184.00-37.79Q181.60-30.89 178.69-26.85L178.69-26.85L178.69-26.85Q175.79-22.80 170.72-20.01L170.72-20.01L170.72-20.01Q165.64-17.21 159.03-17.21ZM148.09-35.45L153.10-35.45L153.10-35.45Q156.98-35.45 158.97-36.31L158.97-36.31L158.97-36.31Q160.97-37.16 161.54-40.24L161.54-40.24L161.54-40.24Q163.02-48.68 163.02-49.48L163.02-49.48L163.02-49.48Q163.02-51.64 161.31-52.33L161.31-52.33L161.31-52.33Q159.60-53.01 156.18-53.01L156.18-53.01L151.16-53.01L148.09-35.45ZM117.76-5.47L116.85-0.34L68.51-5.47L117.76-5.47ZM121.64-27.47L120.73-22.34L72.39-27.47L121.64-27.47ZM125.40-49.36L124.49-44.23L76.27-49.36L125.40-49.36ZM127.34-60.31L126.43-55.18L78.20-60.31L127.34-60.31ZM119.70-16.53L118.79-11.40L70.45-16.53L119.70-16.53ZM129.28-71.25L128.36-66.12L80.14-71.25L129.28-71.25ZM123.46-38.42L122.55-33.29L74.33-38.42L123.46-38.42ZM246.70-17.21L246.70-17.21L232.56-17.21L229.60 0L207.94 0L220.48-71.25L254.68-71.25L254.68-71.25Q274.06-71.25 274.06-53.24L274.06-53.24L274.06-53.24Q274.06-44.69 271.66-37.79L271.66-37.79L271.66-37.79Q269.27-30.89 266.36-26.85L266.36-26.85L266.36-26.85Q263.45-22.80 258.38-20.01L258.38-20.01L258.38-20.01Q253.31-17.21 246.70-17.21ZM235.75-35.45L240.77-35.45L240.77-35.45Q244.64-35.45 246.64-36.31L246.64-36.31L246.64-36.31Q248.63-37.16 249.20-40.24L249.20-40.24L249.20-40.24Q250.69-48.68 250.69-49.48L250.69-49.48L250.69-49.48Q250.69-51.64 248.98-52.33L248.98-52.33L248.98-52.33Q247.27-53.01 243.85-53.01L243.85-53.01L238.83-53.01L235.75-35.45ZM205.43-5.47L204.52-0.34L156.18-5.47L205.43-5.47ZM209.30-27.47L208.39-22.34L160.06-27.47L209.30-27.47ZM213.07-49.36L212.15-44.23L163.93-49.36L213.07-49.36ZM215.00-60.31L214.09-55.18L165.87-60.31L215.00-60.31ZM207.37-16.53L206.45-11.40L158.12-16.53L207.37-16.53ZM216.94-71.25L216.03-66.12L167.81-71.25L216.94-71.25ZM211.13-38.42L210.22-33.29L161.99-38.42L211.13-38.42ZM292.87-0.34L245.21-5.47L294.46-5.47L292.87-0.34ZM253.99-49.36L303.13-49.36L303.13-49.36Q302.44-47.54 301.64-44.23L301.64-44.23L253.99-49.36ZM300.28-34.20L300.28-34.20L300.28-33.29L251.94-38.42L300.50-38.42L300.50-38.42Q300.28-35.68 300.28-34.20ZM298.11-16.53L296.51-11.51L248.98-16.53L298.11-16.53ZM261.86-60.31L310.99-60.31L310.99-60.31Q307.91-58.03 306.32-55.52L306.32-55.52L261.86-60.31ZM256.39-27.47L301.30-27.47L301.30-27.47Q302.33-24.51 304.61-22.34L304.61-22.34L256.39-27.47ZM352.26-59.05L346.79-42.41L346.79-42.41Q339.04-44.23 333.56-44.23L333.56-44.23L333.56-44.23Q328.09-44.23 325.47-43.89L325.47-43.89L324.90-40.58L330.60-39.90L330.60-39.90Q348.95-37.51 348.95-24.74L348.95-24.74L348.95-24.74Q348.95-23.26 348.27-19.21L348.27-19.21L348.27-19.21Q347.59-15.16 345.99-11.40L345.99-11.40L345.99-11.40Q344.39-7.64 341.94-5.30L341.94-5.30L341.94-5.30Q339.49-2.96 337.15-1.54L337.15-1.54L337.15-1.54Q334.82-0.11 331.17 0.46L331.17 0.46L331.17 0.46Q325.47 1.37 315.95 1.37L315.95 1.37L315.95 1.37Q306.43 1.37 296.74-1.25L296.74-1.25L302.33-18.13L302.33-18.13Q311.22-15.62 317.89-15.62L317.89-15.62L317.89-15.62Q324.56-15.62 327.29-15.96L327.29-15.96L327.86-19.61L320.68-20.41L320.68-20.41Q311.45-21.43 307.57-24.74L307.57-24.74L307.57-24.74Q303.70-28.04 303.70-34.20L303.70-34.20L303.70-34.20Q303.70-36.48 304.27-39.90L304.27-39.90L304.27-39.90Q306.55-52.10 312.47-56.77L312.47-56.77L312.47-56.77Q318.40-61.45 330.54-61.45L330.54-61.45L330.54-61.45Q342.68-61.45 352.26-59.05L352.26-59.05Z" fill="#444"></path></g></g><style>text {
  font-size: 64px;
  font-family: Arial Black;
  dominant-baseline: central;
  text-anchor: middle;
}</style></svg>